<svg width="1840" height="306" viewBox="0 0 1840 306" fill="none" xmlns="http://www.w3.org/2000/svg">
<g clip-path="url(#clip0)">
<rect width="1840" height="306" fill="white"/>
<path d="M1837.5 153.5C1837.5 186.561 1832.6 216.383 1824.76 237.849C1820.84 248.592 1816.23 257.111 1811.23 262.897C1806.23 268.69 1801.08 271.5 1796 271.5C1790.92 271.5 1785.77 268.69 1780.77 262.897C1775.77 257.111 1771.16 248.592 1767.24 237.849C1759.4 216.383 1754.5 186.561 1754.5 153.5C1754.5 120.439 1759.4 90.6175 1767.24 69.1511C1771.16 58.4078 1775.77 49.8893 1780.77 44.1032C1785.77 38.3097 1790.92 35.5 1796 35.5C1801.08 35.5 1806.23 38.3097 1811.23 44.1032C1816.23 49.8893 1820.84 58.4078 1824.76 69.1511C1832.6 90.6175 1837.5 120.439 1837.5 153.5Z" fill="#B8FFFF" stroke="#A9F0F0" stroke-width="5"/>
<path d="M1811.7 5.5C1811.05 6.52071 1810.37 7.62562 1809.65 8.81217C1804.95 16.5227 1798.71 27.6968 1792.48 41.6285C1780.03 69.459 1767.5 108.491 1767.5 153C1767.5 197.509 1780.03 236.541 1792.48 264.372C1798.71 278.303 1804.95 289.477 1809.65 297.188C1810.37 298.374 1811.05 299.479 1811.7 300.5H5.5V5.5H1811.7Z" fill="#C4C4C4" stroke="#ADADAD" stroke-width="11"/>
<path d="M517.5 153.5C517.5 185.552 491.737 211.5 460 211.5C428.263 211.5 402.5 185.552 402.5 153.5C402.5 121.448 428.263 95.5 460 95.5C491.737 95.5 517.5 121.448 517.5 153.5Z" fill="#B8FFFF" stroke="#ADADAD" stroke-width="5"/>
<path d="M212.5 153.5C212.5 185.552 186.737 211.5 155 211.5C123.263 211.5 97.5 185.552 97.5 153.5C97.5 121.448 123.263 95.5 155 95.5C186.737 95.5 212.5 121.448 212.5 153.5Z" fill="#B8FFFF" stroke="#ADADAD" stroke-width="5"/>
<path d="M1127.5 153.5C1127.5 185.552 1101.74 211.5 1070 211.5C1038.26 211.5 1012.5 185.552 1012.5 153.5C1012.5 121.448 1038.26 95.5 1070 95.5C1101.74 95.5 1127.5 121.448 1127.5 153.5Z" fill="#B8FFFF" stroke="#ADADAD" stroke-width="5"/>
<path d="M1432.5 153.5C1432.5 185.552 1406.74 211.5 1375 211.5C1343.26 211.5 1317.5 185.552 1317.5 153.5C1317.5 121.448 1343.26 95.5 1375 95.5C1406.74 95.5 1432.5 121.448 1432.5 153.5Z" fill="#B8FFFF" stroke="#ADADAD" stroke-width="5"/>
<path d="M822.5 153.5C822.5 185.552 796.737 211.5 765 211.5C733.263 211.5 707.5 185.552 707.5 153.5C707.5 121.448 733.263 95.5 765 95.5C796.737 95.5 822.5 121.448 822.5 153.5Z" fill="#B8FFFF" stroke="#ADADAD" stroke-width="5"/>
<rect x="36" y="-0.613708" width="326.745" height="8.2274" fill="#B8FFFF"/>
<rect x="499.085" y="-0.613708" width="326.745" height="8.2274" fill="#B8FFFF"/>
<rect x="962.17" y="-0.613708" width="326.745" height="8.2274" fill="#B8FFFF"/>
<rect x="1425.25" y="-0.613708" width="326.745" height="8.2274" fill="#B8FFFF"/>
<rect x="36" y="299" width="326.745" height="8.2274" fill="#B8FFFF"/>
<rect x="499.085" y="299" width="326.745" height="8.2274" fill="#B8FFFF"/>
<rect x="962.17" y="299" width="326.745" height="8.2274" fill="#B8FFFF"/>
<rect x="1425.25" y="299" width="326.745" height="8.2274" fill="#B8FFFF"/>
<rect x="7.00002" y="14" width="278" height="7" transform="rotate(90 7.00002 14)" fill="#B8FFFF"/>
<rect x="1511" y="42" width="66" height="223" rx="10" fill="#FFE8C6" stroke="#ECD4B0" stroke-width="4"/>
<rect x="1552" y="23" width="177" height="260" rx="19" fill="#C4C4C4" stroke="#ADADAD" stroke-width="8"/>
<rect x="1552" y="64" width="178" height="3.99999" transform="rotate(90 1552 64)" fill="#B8FFFF"/>
<rect x="1733" y="64" width="178" height="3.99999" transform="rotate(90 1733 64)" fill="#B8FFFF"/>
</g>
<defs>
<clipPath id="clip0">
<rect width="1840" height="306" fill="white"/>
</clipPath>
</defs>
</svg>
